<svg xmlns="http://www.w3.org/2000/svg" width="24" height="24" fill="currentColor" viewBox="0 0 24 24">
  <path fill-rule="evenodd" d="M1 12C1 5.925 5.925 1 12 1s11 4.925 11 11-4.925 11-11 11S1 18.075 1 12zm11-9a9 9 0 100 18 9 9 0 000-18z" clip-rule="evenodd"/>
  <path fill-rule="evenodd" d="M13.81 7.134a1 1 0 011.366.366l5.74 9.94a1 1 0 11-1.732 1l-5.74-9.94a1 1 0 01.366-1.366z" clip-rule="evenodd"/>
  <path fill-rule="evenodd" d="M8.69 8a1 1 0 011-1h11.48a1 1 0 110 2H9.69a1 1 0 01-1-1z" clip-rule="evenodd"/>
  <path fill-rule="evenodd" d="M13.62 1.194a1 1 0 01.366 1.366l-5.74 9.94a1 1 0 11-1.732-1l5.74-9.94a1 1 0 011.366-.366z" clip-rule="evenodd"/>
  <path fill-rule="evenodd" d="M3.45 5.194a1 1 0 011.366.366l5.74 9.94a1 1 0 11-1.732 1l-5.74-9.94a1 1 0 01.366-1.366z" clip-rule="evenodd"/>
  <path fill-rule="evenodd" d="M1.83 16a1 1 0 011-1h11.48a1 1 0 110 2H2.83a1 1 0 01-1-1z" clip-rule="evenodd"/>
  <path fill-rule="evenodd" d="M17.12 11.134a1 1 0 01.366 1.366l-5.74 9.94a1 1 0 11-1.732-1l5.74-9.94a1 1 0 011.366-.366z" clip-rule="evenodd"/>
</svg>
