<svg xmlns="http://www.w3.org/2000/svg" width="24" height="24" fill="currentColor" viewBox="0 0 24 24">
  <path fill-rule="evenodd" d="M15.027 3.816a6 6 0 00-5.976-.045A1 1 0 018.07 2.03 8 8 0 0120 9.001v4a1 1 0 01-2 0V9a6 6 0 00-2.973-5.185zM6.239 4.892a1 1 0 01.43 1.347A6 6 0 006 8.999V14c0 .729-.195 1.412-.535 2H17a1 1 0 110 2H2a1 1 0 010-2 2 2 0 002-2V9m5.768 11.135a1 1 0 011.367.363 1 1 0 001.73 0 1 1 0 111.73 1.004 3 3 0 01-5.19 0 1 1 0 01.363-1.367z" clip-rule="evenodd"/>
  <path fill-rule="evenodd" d="M.293.293a1 1 0 011.414 0l22 22a1 1 0 01-1.414 1.414l-22-22a1 1 0 010-1.414z" clip-rule="evenodd"/>
</svg>
