<svg xmlns="http://www.w3.org/2000/svg" width="24" height="24" fill="currentColor" viewBox="0 0 24 24">
  <path fill-rule="evenodd" d="M11.556 2.345h-.001l-7.998 4h-.002A1 1 0 003 7.24m8.556-4.895a1 1 0 01.888 0zm.888 0h.001zM10.665.555a3 3 0 012.67 0h.002l7.998 4h.001A3 3 0 0123 7.24v9.53a3 3 0 01-1.664 2.685h-.001l-7.998 4a3 3 0 01-2.684 0l-8-4-.003-.002A3 3 0 011 16.757V7.24a3 3 0 011.664-2.685h.001l7.998-4h.002zm1.78 1.79l7.998 4zM21 7.242v9.529a1 1 0 01-.555.895h-.002l-8 4a1 1 0 01-.896 0L3.55 17.668a1.001 1.001 0 01-.55-.9V7.24" clip-rule="evenodd"/>
  <path fill-rule="evenodd" d="M1.425 5.713a1 1 0 011.342-.448L12 9.882l9.232-4.617a1 1 0 01.895 1.79l-9.68 4.84a1 1 0 01-.895 0l-9.68-4.84a1 1 0 01-.447-1.342z" clip-rule="evenodd"/>
  <path fill-rule="evenodd" d="M12 10a1 1 0 011 1v11.76a1 1 0 11-2 0V11a1 1 0 011-1z" clip-rule="evenodd"/>
</svg>
