<svg xmlns="http://www.w3.org/2000/svg" width="24" height="24" fill="currentColor" viewBox="0 0 24 24">
  <path fill-rule="evenodd" d="M.293.293a1 1 0 011.414 0l22 22a1 1 0 01-1.414 1.414l-22-22a1 1 0 010-1.414z" clip-rule="evenodd"/>
  <path fill-rule="evenodd" d="M8 3a1 1 0 011-1h6a1 1 0 01.832.445L17.535 5H21a3 3 0 013 3v9.34a1 1 0 11-2 0V8a1 1 0 00-1-1h-4a1 1 0 01-.832-.445L14.465 4H9a1 1 0 01-1-1zM3 7a1 1 0 00-1 1v11a1 1 0 001 1h18a1 1 0 110 2H3a3 3 0 01-3-3V8a3 3 0 013-3h3a1 1 0 010 2H3zm7.545 2.155a1 1 0 01-.26 1.39 3 3 0 104.17 4.17 1 1 0 111.65 1.13 5 5 0 11-6.95-6.95 1 1 0 011.39.26z" clip-rule="evenodd"/>
</svg>
