<svg xmlns="http://www.w3.org/2000/svg" width="24" height="24" fill="currentColor" viewBox="0 0 24 24">
  <path fill-rule="evenodd" d="M8.824 3.912a1 1 0 011.084-.908A9 9 0 0117.612 9h.517M6.004 4.516a1 1 0 01-.391 1.36A7 7 0 009.114 19h9.015c.463 0 .924-.082 1.36-.24a1 1 0 11.682 1.88 6.003 6.003 0 01-2.04.36H9.138A9 9 0 014.646 4.125a1 1 0 011.359.391z" clip-rule="evenodd"/>
  <path fill-rule="evenodd" d="M.293.293a1 1 0 011.414 0l22 22a1 1 0 01-1.414 1.414l-22-22a1 1 0 010-1.414z" clip-rule="evenodd"/>
</svg>
