<svg xmlns="http://www.w3.org/2000/svg" width="25" height="24" fill="currentColor" viewBox="0 0 25 24">
  <path fill-rule="evenodd" d="M9 18a1 1 0 011 1v2a1 1 0 11-2 0v-2a1 1 0 011-1zM9 12a1 1 0 011 1v2a1 1 0 11-2 0v-2a1 1 0 011-1zM17 18a1 1 0 011 1v2a1 1 0 11-2 0v-2a1 1 0 011-1zM17 12a1 1 0 011 1v2a1 1 0 11-2 0v-2a1 1 0 011-1zM13 20a1 1 0 011 1v2a1 1 0 11-2 0v-2a1 1 0 011-1zM13 14a1 1 0 011 1v2a1 1 0 11-2 0v-2a1 1 0 011-1z" clip-rule="evenodd"/>
  <path fill-rule="evenodd" d="M1.587 5.786A9 9 0 0118.48 6h.522a6 6 0 012.4 11.496 1 1 0 11-.803-1.832A4 4 0 0018.998 8H17.74a1 1 0 01-.969-.75 7 7 0 10-11.147 7.219 1 1 0 01-1.249 1.562A9 9 0 011.587 5.786z" clip-rule="evenodd"/>
</svg>
