<svg xmlns="http://www.w3.org/2000/svg" width="24" height="24" fill="currentColor" viewBox="0 0 24 24">
  <path fill-rule="evenodd" d="M3 9.043v5.914l9 5.85 9-5.85V9.043l-9-5.85-9 5.85zM12 2l-.545-.838-10 6.5A1 1 0 001 8.5v7a1 1 0 00.455.838l10 6.5a1 1 0 001.09 0l10-6.5A1 1 0 0023 15.5v-7a1 1 0 00-.455-.838l-10-6.5L12 2z" clip-rule="evenodd"/>
  <path fill-rule="evenodd" d="M12 14.5a1 1 0 011 1V22a1 1 0 11-2 0v-6.5a1 1 0 011-1z" clip-rule="evenodd"/>
  <path fill-rule="evenodd" d="M1.18 7.927a1 1 0 011.394-.246L12 14.279l9.427-6.598a1 1 0 111.146 1.638l-10 7a1 1 0 01-1.146 0l-10-7a1 1 0 01-.246-1.392z" clip-rule="evenodd"/>
  <path fill-rule="evenodd" d="M11.427 7.68a1 1 0 011.146 0l10 7a1 1 0 11-1.146 1.64L12 9.72l-9.426 6.6a1 1 0 01-1.147-1.64l10-7z" clip-rule="evenodd"/>
  <path fill-rule="evenodd" d="M12 1a1 1 0 011 1v6.5a1 1 0 11-2 0V2a1 1 0 011-1z" clip-rule="evenodd"/>
</svg>
