<svg xmlns="http://www.w3.org/2000/svg" width="24" height="24" fill="currentColor" viewBox="0 0 24 24">
  <path fill-rule="evenodd" d="M1 12C1 5.925 5.925 1 12 1s11 4.925 11 11-4.925 11-11 11S1 18.075 1 12zm11-9a9 9 0 100 18 9 9 0 000-18z" clip-rule="evenodd"/>
  <path fill-rule="evenodd" d="M10.67 10.67l-1.33 3.99 3.99-1.33 1.329-3.989-3.989 1.33zm5.57-2.91l-.316-.948-6.36 2.12a1 1 0 00-.633.632l-2.12 6.36a1 1 0 001.265 1.265l6.36-2.12a1 1 0 00.633-.633l2.12-6.36-.95-.316z" clip-rule="evenodd"/>
</svg>
