<svg xmlns="http://www.w3.org/2000/svg" width="24" height="24" fill="currentColor" viewBox="0 0 24 24">
  <path fill-rule="evenodd" d="M1 12C1 5.925 5.925 1 12 1s11 4.925 11 11-4.925 11-11 11S1 18.075 1 12zm11-9a9 9 0 100 18 9 9 0 000-18z" clip-rule="evenodd"/>
  <path fill-rule="evenodd" d="M17 12a1 1 0 011-1h4a1 1 0 110 2h-4a1 1 0 01-1-1zM1 12a1 1 0 011-1h4a1 1 0 110 2H2a1 1 0 01-1-1zM12 1a1 1 0 011 1v4a1 1 0 11-2 0V2a1 1 0 011-1zM12 17a1 1 0 011 1v4a1 1 0 11-2 0v-4a1 1 0 011-1z" clip-rule="evenodd"/>
</svg>
