<svg xmlns="http://www.w3.org/2000/svg" width="26" height="24" fill="currentColor" viewBox="0 0 26 24">
  <path fill-rule="evenodd" d="M8.293 17.293a1 1 0 011.414 0L13 20.586l3.293-3.293a1 1 0 011.414 1.414l-4 4a1 1 0 01-1.414 0l-4-4a1 1 0 010-1.414z" clip-rule="evenodd"/>
  <path fill-rule="evenodd" d="M13 12a1 1 0 011 1v9a1 1 0 11-2 0v-9a1 1 0 011-1z" clip-rule="evenodd"/>
  <path fill-rule="evenodd" d="M2.01 7.828A9 9 0 0118.48 9H19a6.001 6.001 0 013.456 10.908 1 1 0 11-1.15-1.636A4 4 0 0019 11H17.74a1 1 0 01-.969-.751A7 7 0 104.75 16.628a1 1 0 01-1.498 1.325A9 9 0 012.01 7.828z" clip-rule="evenodd"/>
</svg>
