<svg xmlns="http://www.w3.org/2000/svg" width="24" height="24" fill="currentColor" viewBox="0 0 24 24">
  <path fill-rule="evenodd" d="M5 4a1 1 0 00-1 1v14a1 1 0 001 1h14a1 1 0 001-1v-5.34a1 1 0 112 0V19a3 3 0 01-3 3H5a3 3 0 01-3-3V5a3 3 0 013-3h5.34a1 1 0 110 2H5z" clip-rule="evenodd"/>
  <path fill-rule="evenodd" d="M17.293 1.293a1 1 0 011.414 0l4 4a1 1 0 010 1.414l-10 10A1 1 0 0112 17H8a1 1 0 01-1-1v-4a1 1 0 01.293-.707l10-10zM9 12.414V15h2.586l9-9L18 3.414l-9 9z" clip-rule="evenodd"/>
</svg>
