<svg xmlns="http://www.w3.org/2000/svg" width="24" height="24" fill="currentColor" viewBox="0 0 24 24">
  <g clip-path="url(#clip0_49_13941)">
    <path d="M21.176 6.016L15.41.252A.856.856 0 0014.806 0H3.427a.856.856 0 00-.857.857v22.286c0 .474.383.857.857.857H20.57a.856.856 0 00.857-.857V6.624a.862.862 0 00-.251-.608zM19.45 7.018H14.41V1.977l5.04 5.04zm.048 15.053h-15V1.93h8.09v5.785a1.125 1.125 0 001.124 1.125H19.5v13.232zm-7.444-8.247L10.4 11.081a.324.324 0 00-.276-.155H9.095a.3.3 0 00-.171.05.32.32 0 00-.1.445l2.205 3.493-2.234 3.557a.323.323 0 00.274.493h.924a.322.322 0 00.273-.152l1.68-2.72 1.668 2.717a.32.32 0 00.273.153h1.005a.32.32 0 00.27-.495l-2.25-3.494 2.285-3.549a.323.323 0 00-.27-.495h-.957a.324.324 0 00-.276.155l-1.639 2.74z"/>
  </g>
  <defs>
    <clipPath id="clip0_49_13941">
      <path d="M0 0h24v24H0z"/>
    </clipPath>
  </defs>
</svg>
