<svg xmlns="http://www.w3.org/2000/svg" width="24" height="24" fill="currentColor" viewBox="0 0 24 24">
  <path fill-rule="evenodd" d="M11.998 5a8.12 8.12 0 00-1.87.214 1 1 0 11-.456-1.948A10.12 10.12 0 0112.002 3L12 4V3h.001c3.9 0 6.895 2.227 8.854 4.316a20.676 20.676 0 012.831 3.85 11.778 11.778 0 01.192.354l.011.022.003.007.002.002s0 .002-.894.449l-.867.434c-.076-.08-.19-.287-.275-.436a18.676 18.676 0 00-2.463-3.314C17.605 6.774 15.101 5 12 5h-.002zm9.86 6.998c-.517.9-1.114 1.753-1.783 2.548a1 1 0 001.53 1.288 19.505 19.505 0 002.277-3.363 1 1 0 00.012-.918L23 12l-.867.434-.02-.021-.014.021c-.006-.011.014-.014 0-.04-.027-.051-.099-.146-.156-.248a14.478 14.478 0 00-.085-.148zM6.855 5.453a1 1 0 01-.188 1.402 17.45 17.45 0 00-4.524 5.148 18.68 18.68 0 002.462 3.313c1.789 1.909 4.29 3.68 7.387 3.684a9.07 9.07 0 005.342-1.855 1 1 0 011.212 1.59A11.07 11.07 0 0112.016 21H12c-3.9 0-6.896-2.226-8.855-4.316a20.682 20.682 0 01-2.831-3.85 12.375 12.375 0 01-.192-.354l-.011-.022-.003-.007-.002-.002s0-.002.894-.449l-.894.447a1 1 0 01.013-.92 19.45 19.45 0 015.334-6.262 1 1 0 011.402.188zm3.757 3.745a1 1 0 01-.05 1.414 2 2 0 102.826 2.826 1 1 0 111.464 1.364 4 4 0 11-5.654-5.654 1 1 0 011.414.05z" clip-rule="evenodd"/>
  <path fill-rule="evenodd" d="M.293.293a1 1 0 011.414 0l22 22a1 1 0 01-1.414 1.414l-22-22a1 1 0 010-1.414z" clip-rule="evenodd"/>
</svg>
