<svg xmlns="http://www.w3.org/2000/svg" width="24" height="24" fill="currentColor" viewBox="0 0 24 24">
  <path fill-rule="evenodd" d="M11.043 4.043a7.003 7.003 0 019.905 9.903v.001l-6.74 6.76A1 1 0 0113.5 21H5a1 1 0 01-1-1v-8.5a1 1 0 01.293-.707l6.75-6.75zm8.49 1.414a5.003 5.003 0 00-7.076 0L6 11.914V19h7.085l6.447-6.466v-.001a5.003 5.003 0 000-7.076z" clip-rule="evenodd"/>
  <path fill-rule="evenodd" d="M16.707 8.293a1 1 0 010 1.414l-14 14a1 1 0 01-1.414-1.414l14-14a1 1 0 011.414 0z" clip-rule="evenodd"/>
  <path fill-rule="evenodd" d="M8 16a1 1 0 011-1h8a1 1 0 110 2H9a1 1 0 01-1-1z" clip-rule="evenodd"/>
</svg>
