<svg xmlns="http://www.w3.org/2000/svg" width="24" height="24" fill="currentColor" viewBox="0 0 24 24">
  <path fill-rule="evenodd" d="M1 4.18A3.18 3.18 0 014.18 1h15.64A3.18 3.18 0 0123 4.18v15.64A3.18 3.18 0 0119.82 23H4.18A3.18 3.18 0 011 19.82V4.18zM4.18 3A1.18 1.18 0 003 4.18v15.64c0 .652.528 1.18 1.18 1.18h15.64A1.18 1.18 0 0021 19.82V4.18A1.18 1.18 0 0019.82 3H4.18z" clip-rule="evenodd"/>
  <path fill-rule="evenodd" d="M7 1a1 1 0 011 1v20a1 1 0 11-2 0V2a1 1 0 011-1zM17 1a1 1 0 011 1v20a1 1 0 11-2 0V2a1 1 0 011-1z" clip-rule="evenodd"/>
  <path fill-rule="evenodd" d="M1 12a1 1 0 011-1h20a1 1 0 110 2H2a1 1 0 01-1-1zM1 7a1 1 0 011-1h5a1 1 0 010 2H2a1 1 0 01-1-1zM1 17a1 1 0 011-1h5a1 1 0 110 2H2a1 1 0 01-1-1zM16 17a1 1 0 011-1h5a1 1 0 110 2h-5a1 1 0 01-1-1zM16 7a1 1 0 011-1h5a1 1 0 110 2h-5a1 1 0 01-1-1z" clip-rule="evenodd"/>
</svg>
