<svg xmlns="http://www.w3.org/2000/svg" width="24" height="24" fill="currentColor" viewBox="0 0 24 24">
  <path fill-rule="evenodd" d="M4.504 1.572C5.26 1.269 6.387 1 8 1c1.693 0 3.097.561 4.316 1.05l.055.022C13.64 2.579 14.72 3 16 3c1.387 0 2.26-.23 2.754-.428.248-.1.405-.192.488-.248a.936.936 0 00.073-.053.052.052 0 00.003-.002l-.003.002-.008.008-.006.006-.004.004-.002.002h-.001c0 .001-.001.002.706.709m-1 1.603c-.728.224-1.708.397-3 .397-1.693 0-3.097-.561-4.316-1.05l-.055-.022C10.36 3.421 9.28 3 8 3c-1.387 0-2.26.23-2.754.428a3.385 3.385 0 00-.246.11v9.859C5.728 13.173 6.708 13 8 13c1.693 0 3.097.562 4.316 1.05l.055.021C13.64 14.58 14.72 15 16 15c1.387 0 2.26-.23 2.754-.428.095-.038.177-.076.246-.11V4.603zM4 3c-.707-.707-.707-.708-.706-.708l.001-.001.002-.002.005-.005.01-.01a1.52 1.52 0 01.101-.089c.059-.048.137-.107.235-.173a4.66 4.66 0 01.856-.44M4 14a1 1 0 011 1v7a1 1 0 11-2 0v-7a1 1 0 011-1z" clip-rule="evenodd"/>
</svg>
