<svg xmlns="http://www.w3.org/2000/svg" width="24" height="24" fill="currentColor" viewBox="0 0 24 24">
  <path fill-rule="evenodd" d="M12 3.5a1 1 0 011-1h7.866a1 1 0 011 1V11a1 1 0 01-2 0V4.5H13a1 1 0 01-1-1zM12 20.858a1 1 0 01-1 1H3.134a1 1 0 01-1-1v-7.5a1 1 0 112 0v6.5H11a1 1 0 011 1z" clip-rule="evenodd"/>
  <path fill-rule="evenodd" d="M13.342 10.842a1 1 0 010-1.415l5.586-5.585a1 1 0 111.414 1.414l-5.586 5.586a1 1 0 01-1.414 0zM10.658 13.517a1 1 0 010 1.414l-5.586 5.586a1 1 0 01-1.414-1.414l5.586-5.586a1 1 0 011.414 0z" clip-rule="evenodd"/>
</svg>
