<svg xmlns="http://www.w3.org/2000/svg" width="24" height="24" fill="currentColor" viewBox="0 0 24 24">
  <path fill-rule="evenodd" d="M9.179 2.403a14.38 14.38 0 016.643 0c1.256-.796 2.226-1.167 2.94-1.326a3.9 3.9 0 01.949-.103 2.32 2.32 0 01.407.047l.042.01.018.006.009.002.004.001h.002s.002.001-.283.96l.285-.959a1 1 0 01.634.565 6.07 6.07 0 01.292 3.933 6.44 6.44 0 011.38 3.98c0 2.947-.902 4.923-2.4 6.183-1.006.846-2.208 1.303-3.393 1.565a4.37 4.37 0 01.292 1.9V23a1 1 0 11-2 0v-3.87l.003-.078a2.37 2.37 0 00-.66-1.836 1 1 0 01.607-1.69c1.513-.169 2.878-.526 3.864-1.355.938-.788 1.686-2.137 1.686-4.65m-1.297-6.493l-.007.002c-.488.108-1.351.417-2.639 1.28a1 1 0 01-.818.135 12.38 12.38 0 00-6.477 0 1 1 0 01-.819-.134c-1.287-.864-2.15-1.173-2.638-1.281l-.008-.002a4.07 4.07 0 00.14 2.392 1 1 0 01-.213 1.04A4.44 4.44 0 004.5 9.544v.005c0 2.49.747 3.831 1.686 4.62.99.833 2.359 1.199 3.877 1.388a1 1 0 01.596 1.687 2.37 2.37 0 00-.661 1.815.999.999 0 01.002.07V23a1 1 0 11-2 0v-1.746c-.806.124-1.515.102-2.15-.046-.964-.226-1.653-.722-2.182-1.251a9.105 9.105 0 01-.674-.769l-.182-.23c-.12-.152-.225-.286-.339-.419-.328-.385-.531-.523-.715-.569a1 1 0 01.485-1.94c.816.204 1.362.753 1.753 1.212.139.163.283.346.414.513l.147.186c.179.223.346.423.525.602.347.346.72.6 1.224.718.4.093.942.115 1.694-.038v-.06c-.04-.648.065-1.29.3-1.88-1.187-.271-2.393-.734-3.4-1.581-1.496-1.258-2.4-3.221-2.4-6.15M5.09 2c-.284-.959-.283-.96-.282-.96h.002l.004-.001.008-.002.018-.005A1.34 1.34 0 014.99 1a2.32 2.32 0 01.3-.027 3.9 3.9 0 01.95.103c.714.16 1.683.53 2.94 1.326M5.09 2l-.284-.959a1 1 0 00-.635.565 6.07 6.07 0 00-.292 3.933m15.324-2.51a4.07 4.07 0 01-.14 2.391 1 1 0 00.213 1.04A4.44 4.44 0 0120.5 9.52" clip-rule="evenodd"/>
</svg>
