<svg xmlns="http://www.w3.org/2000/svg" width="25" height="24" fill="currentColor" viewBox="0 0 25 24">
  <path fill-rule="evenodd" d="M4.556 2.482a.605.605 0 01-.003-.011l.003.01zm.551 1.691L7 9.98a1 1 0 00.95.69h8.1a1 1 0 00.952-.69l1.886-5.805L20.779 10l1.224 3.625L12 20.894l-9.965-7.242 3.072-9.479zm14.164-1.431l.003-.003-.003.003zM4.147 1.26a1.43 1.43 0 011.948.021c.17.165.297.37.368.596L8.676 8.67h6.647l2.216-6.819.018-.052a1.43 1.43 0 012.318-.518c.17.165.297.37.368.597l2.436 7.498 1.268 3.754.013.04a1.84 1.84 0 01-.74 2.042l-10.632 7.727a1 1 0 01-1.176 0L.762 15.2l-.005-.003A1.84 1.84 0 01.1 13.14l3.66-11.289a1.42 1.42 0 01.388-.591z" clip-rule="evenodd"/>
</svg>
