<svg xmlns="http://www.w3.org/2000/svg" width="24" height="24" fill="currentColor" viewBox="0 0 24 24">
  <path fill-rule="evenodd" d="M1 12C1 5.925 5.925 1 12 1s11 4.925 11 11-4.925 11-11 11S1 18.075 1 12zm11-9a9 9 0 100 18 9 9 0 000-18z" clip-rule="evenodd"/>
  <path fill-rule="evenodd" d="M1 12a1 1 0 011-1h20a1 1 0 110 2H2a1 1 0 01-1-1z" clip-rule="evenodd"/>
  <path fill-rule="evenodd" d="M12.362 1.068a.998.998 0 01.38.262A16.3 16.3 0 0117 12.02a16.3 16.3 0 01-4.262 10.654 1 1 0 01-1.476 0A16.3 16.3 0 017 11.98a16.3 16.3 0 014.262-10.653 1 1 0 011.1-.258zM9 12a14.3 14.3 0 003 8.45A14.3 14.3 0 0015 12a14.3 14.3 0 00-3-8.45A14.3 14.3 0 009 12z" clip-rule="evenodd"/>
</svg>
