<svg xmlns="http://www.w3.org/2000/svg" width="24" height="24" fill="currentColor" viewBox="0 0 24 24">
  <path fill-rule="evenodd" d="M12 4a8 8 0 00-8 8v6a1 1 0 11-2 0v-6C2 6.477 6.477 2 12 2s10 4.477 10 10v6a1 1 0 11-2 0v-6a8 8 0 00-8-8z" clip-rule="evenodd"/>
  <path fill-rule="evenodd" d="M2 14a1 1 0 011-1h3a3 3 0 013 3v3a3 3 0 01-3 3H5a3 3 0 01-3-3v-5zm2 1v4a1 1 0 001 1h1a1 1 0 001-1v-3a1 1 0 00-1-1H4zm14 0a1 1 0 00-1 1v3a1 1 0 001 1h1a1 1 0 001-1v-4h-2zm-3 1a3 3 0 013-3h3a1 1 0 011 1v5a3 3 0 01-3 3h-1a3 3 0 01-3-3v-3z" clip-rule="evenodd"/>
</svg>
