<svg xmlns="http://www.w3.org/2000/svg" width="24" height="24" fill="currentColor" viewBox="0 0 24 24">
  <path fill-rule="evenodd" d="M12.258 8.024a2 2 0 00-2.224 1.308 1 1 0 01-1.887-.664 4 4 0 017.773 1.333c0 1.53-1.135 2.54-1.945 3.081a8.045 8.045 0 01-1.686.848l-.035.013-.011.003-.004.002h-.001s-.002 0-.318-.948l.316.949a1 1 0 01-.633-1.897h-.001l.017-.006a5.84 5.84 0 00.364-.147c.247-.11.568-.272.882-.481.69-.46 1.055-.949 1.055-1.418v-.002a2 2 0 00-1.662-1.974z" clip-rule="evenodd"/>
  <path fill-rule="evenodd" d="M1 12C1 5.925 5.925 1 12 1s11 4.925 11 11-4.925 11-11 11S1 18.075 1 12zm11-9a9 9 0 100 18 9 9 0 000-18z" clip-rule="evenodd"/>
  <path d="M13 17a1 1 0 11-2 0 1 1 0 012 0z"/>
</svg>
