<svg xmlns="http://www.w3.org/2000/svg" width="24" height="24" fill="currentColor" viewBox="0 0 24 24">
  <path fill-rule="evenodd" d="M1 13a1 1 0 011-1h6a1 1 0 01.832.445L10.535 15h2.93l1.703-2.555A1 1 0 0116 12h6a1 1 0 110 2h-5.465l-1.703 2.555A1 1 0 0114 17h-4a1 1 0 01-.832-.445L7.465 14H2a1 1 0 01-1-1z" clip-rule="evenodd"/>
  <path fill-rule="evenodd" d="M7.3 3a3 3 0 00-2.744 1.784zM4.556 4.784zm0 0l-3.47 7.81A1 1 0 001 13v5a3 3 0 003 3h16a3 3 0 003-3v-5a1 1 0 00-.086-.406l-3.47-7.809M7.3 5a1 1 0 00-.915.595L3 13.212V18a1 1 0 001 1h16a1 1 0 001-1v-4.788l-3.384-7.617A1 1 0 0016.7 5H7.299zM16.7 3zm0 0H7.3z" clip-rule="evenodd"/>
</svg>
