<svg xmlns="http://www.w3.org/2000/svg" width="24" height="24" fill="currentColor" viewBox="0 0 24 24">
  <path fill-rule="evenodd" d="M1 12C1 5.925 5.925 1 12 1s11 4.925 11 11-4.925 11-11 11S1 18.075 1 12zm11-9a9 9 0 100 18 9 9 0 000-18z" clip-rule="evenodd"/>
  <path fill-rule="evenodd" d="M7 12a5 5 0 1110 0 5 5 0 01-10 0zm5-3a3 3 0 100 6 3 3 0 000-6z" clip-rule="evenodd"/>
  <path fill-rule="evenodd" d="M4.223 4.223a1 1 0 011.414 0l4.24 4.24a1 1 0 01-1.414 1.414l-4.24-4.24a1 1 0 010-1.414zM14.123 14.123a1 1 0 011.414 0l4.24 4.24a1 1 0 01-1.414 1.414l-4.24-4.24a1 1 0 010-1.414zM19.777 4.223a1 1 0 010 1.414l-4.24 4.24a1 1 0 11-1.414-1.414l4.24-4.24a1 1 0 011.414 0z" clip-rule="evenodd"/>
  <path fill-rule="evenodd" d="M19.067 4.933a1 1 0 010 1.414l-3.53 3.53a1 1 0 01-1.414-1.414l3.53-3.53a1 1 0 011.414 0zM9.877 14.123a1 1 0 010 1.414l-4.24 4.24a1 1 0 01-1.414-1.414l4.24-4.24a1 1 0 011.414 0z" clip-rule="evenodd"/>
</svg>
