<svg xmlns="http://www.w3.org/2000/svg" width="24" height="24" fill="currentColor" viewBox="0 0 24 24">
  <path fill-rule="evenodd" d="M4.93 13.414a4 4 0 005.656 5.657l2.121-2.121a1 1 0 011.415 1.414L12 20.485A6 6 0 113.515 12l2.121-2.121a1 1 0 011.415 1.414l-2.122 2.121zM9.88 7.05a1 1 0 010-1.414L12 3.515A6 6 0 1120.486 12l-2.122 2.121a1 1 0 01-1.414-1.414l2.122-2.121a4 4 0 00-5.657-5.657L11.293 7.05a1 1 0 01-1.414 0z" clip-rule="evenodd"/>
  <path fill-rule="evenodd" d="M8.465 15.536a1 1 0 010-1.415l5.657-5.657a1 1 0 111.414 1.415l-5.657 5.657a1 1 0 01-1.414 0z" clip-rule="evenodd"/>
</svg>
