<svg xmlns="http://www.w3.org/2000/svg" width="24" height="24" fill="currentColor" viewBox="0 0 24 24">
  <path fill-rule="evenodd" d="M13 2a1 1 0 011-1h5a3 3 0 013 3v16a3 3 0 01-3 3h-5a1 1 0 110-2h5a1 1 0 001-1V4a1 1 0 00-1-1h-5a1 1 0 01-1-1z" clip-rule="evenodd"/>
  <path fill-rule="evenodd" d="M10.293 7.293a1 1 0 011.414 0l4 4a1 1 0 010 1.414l-4 4a1 1 0 01-1.414-1.414L13.586 12l-3.293-3.293a1 1 0 010-1.414z" clip-rule="evenodd"/>
  <path fill-rule="evenodd" d="M2 12a1 1 0 011-1h12a1 1 0 110 2H3a1 1 0 01-1-1z" clip-rule="evenodd"/>
</svg>
