<svg xmlns="http://www.w3.org/2000/svg" width="24" height="24" fill="currentColor" viewBox="0 0 24 24">
  <path fill-rule="evenodd" d="M7.504 1.132a1 1 0 01.943-.026l7.522 3.76 6.535-3.734A1 1 0 0124 2v16a1 1 0 01-.504.868l-7 4a1 1 0 01-.943.026l-7.522-3.76-6.535 3.734A1 1 0 010 22V6h1l-.496-.868 7-4zM2 6.58v13.697l5.504-3.145a1 1 0 01.943-.026l7.522 3.76L22 17.42V3.723l-5.504 3.145a1 1 0 01-.943.026L8.03 3.134 2 6.58z" clip-rule="evenodd"/>
  <path fill-rule="evenodd" d="M8 1a1 1 0 011 1v16a1 1 0 11-2 0V2a1 1 0 011-1zM16 5a1 1 0 011 1v16a1 1 0 11-2 0V6a1 1 0 011-1z" clip-rule="evenodd"/>
</svg>
