<svg xmlns="http://www.w3.org/2000/svg" width="24" height="24" fill="currentColor" viewBox="0 0 24 24">
  <path fill-rule="evenodd" d="M12.497 4a7.38 7.38 0 00-3.346.793l-.004.002A7.5 7.5 0 005 11.5v.003a7.38 7.38 0 00.793 3.346 1 1 0 01.056.767L4.58 19.42l3.803-1.268a1 1 0 01.767.056 7.379 7.379 0 003.346.793h.003a7.5 7.5 0 006.706-4.147l.001-.004A7.379 7.379 0 0020 11.503l1-.003h-1v-.472A7.48 7.48 0 0012.972 4h-.475zM22 11.499a9.381 9.381 0 01-1.006 4.25A9.5 9.5 0 0112.502 21H12.5v-1l.003 1H12.5a9.378 9.378 0 01-3.867-.824l.382-.127L8.7 19.1l-.45.893c.126.064.254.125.384.183L3.316 21.95a1 1 0 01-1.265-1.265l1.773-5.318c.058.13.12.258.183.385L4.9 15.3l-.949-.316-.127.382A9.38 9.38 0 013 11.5l1 .001-1-.003v.002a9.5 9.5 0 015.251-8.493l-.002.001.451.893-.447-.894h-.002A9.38 9.38 0 0112.501 2H13a9.48 9.48 0 019 9v.499z" clip-rule="evenodd"/>
</svg>
