<svg xmlns="http://www.w3.org/2000/svg" width="24" height="24" fill="currentColor" viewBox="0 0 24 24">
  <path fill-rule="evenodd" d="M8 4a4 4 0 118 0v8a4 4 0 01-8 0V4zm4-2a2 2 0 00-2 2v8a2 2 0 104 0V4a2 2 0 00-2-2z" clip-rule="evenodd"/>
  <path fill-rule="evenodd" d="M5 9a1 1 0 011 1v2a6 6 0 0012 0v-2a1 1 0 112 0v2a8 8 0 11-16 0v-2a1 1 0 011-1z" clip-rule="evenodd"/>
  <path fill-rule="evenodd" d="M12 18a1 1 0 011 1v4a1 1 0 11-2 0v-4a1 1 0 011-1z" clip-rule="evenodd"/>
  <path fill-rule="evenodd" d="M7 23a1 1 0 011-1h8a1 1 0 110 2H8a1 1 0 01-1-1z" clip-rule="evenodd"/>
</svg>
