<svg xmlns="http://www.w3.org/2000/svg" width="24" height="24" fill="currentColor" viewBox="0 0 24 24">
  <path fill-rule="evenodd" d="M14 17a3 3 0 013-3h4a1 1 0 011 1v2a3 3 0 01-3 3h-2a3 3 0 01-3-3zm3-1a1 1 0 100 2h2a1 1 0 001-1v-1h-3zM2 19a3 3 0 013-3h4a1 1 0 011 1v2a3 3 0 01-3 3H5a3 3 0 01-3-3zm3-1a1 1 0 100 2h2a1 1 0 001-1v-1H5z" clip-rule="evenodd"/>
  <path fill-rule="evenodd" d="M21.646 2.237A1 1 0 0122 3v12a1 1 0 11-2 0V4.18L10 5.847V17a1 1 0 11-2 0V5a1 1 0 01.836-.986l12-2a1 1 0 01.81.223z" clip-rule="evenodd"/>
</svg>
