<svg xmlns="http://www.w3.org/2000/svg" width="24" height="24" fill="currentColor" viewBox="0 0 24 24">
  <g clip-path="url(#clip0_49_13943)">
    <path d="M12.516 13.671l.008-.037c.155-.64.35-1.439.198-2.162-.102-.57-.522-.792-.881-.809-.423-.018-.801.223-.895.574-.177.643-.018 1.521.27 2.64-.364.868-.945 2.13-1.37 2.88-.794.41-1.857 1.042-2.015 1.84-.032.148.005.335.094.504.099.187.257.332.442.402.08.03.177.053.289.053.471 0 1.235-.38 2.253-2.127.155-.05.316-.104.471-.158.729-.246 1.484-.503 2.167-.618.755.404 1.615.664 2.2.664.578 0 .805-.343.891-.55.15-.36.078-.816-.166-1.06-.354-.348-1.213-.44-2.553-.273-.659-.402-1.09-.948-1.403-1.763zm-2.939 4.07c-.372.54-.653.81-.806.929.18-.33.53-.678.806-.93zm2.347-6.309c.14.239.12.96.013 1.323-.131-.533-.15-1.288-.072-1.376.021.002.04.018.059.053zm-.043 3.228c.287.495.648.921 1.047 1.237-.578.132-1.106.348-1.577.541l-.33.134c.356-.645.654-1.377.86-1.912zm4.168 1.754c.003.006.005.014-.01.024h-.006l-.006.008c-.021.014-.24.142-1.186-.23 1.087-.05 1.205.196 1.208.198zm5.127-10.398L15.41.252A.856.856 0 0014.806 0H3.427a.856.856 0 00-.857.857v22.286c0 .474.383.857.857.857H20.57a.856.856 0 00.857-.857V6.624a.862.862 0 00-.251-.608zM19.45 7.018H14.41V1.977l5.04 5.04zm.048 15.053h-15V1.93h8.09v5.785a1.125 1.125 0 001.124 1.125H19.5v13.232z"/>
  </g>
  <defs>
    <clipPath id="clip0_49_13943">
      <path d="M0 0h24v24H0z"/>
    </clipPath>
  </defs>
</svg>
