<svg xmlns="http://www.w3.org/2000/svg" width="24" height="24" fill="currentColor" viewBox="0 0 24 24">
  <path fill-rule="evenodd" d="M7.12 3.856a1 1 0 00-1-.856H3.11a1 1 0 00-.995 1.084 18.79 18.79 0 002.914 8.222l.005.008a18.5 18.5 0 005.692 5.692l.008.005a18.79 18.79 0 008.184 2.914 1 1 0 001.082-1V16.92v-.025a1 1 0 00-.856-1.014 13.837 13.837 0 01-3.024-.754h-.002a1 1 0 00-1.053.223l-1.268 1.267a1 1 0 01-1.201.162 17 17 0 01-6.375-6.375 1 1 0 01.162-1.201L7.65 7.935a1 1 0 00.223-1.053l-.001-.002a13.84 13.84 0 01-.754-3.024zM6.105 1A3 3 0 019.1 3.58l.001.01c.117.884.333 1.753.645 2.59a3 3 0 01-.675 3.163l-.004.004-.717.717a15.002 15.002 0 004.586 4.586l.717-.717.004-.004a3 3 0 013.164-.675c.836.312 1.705.528 2.59.645h.009A3 3 0 0122 16.932v2.987" clip-rule="evenodd"/>
</svg>
