<svg xmlns="http://www.w3.org/2000/svg" width="24" height="24" fill="currentColor" viewBox="0 0 24 24">
  <path fill-rule="evenodd" d="M13.149 1.567a1 1 0 011.012-.56 10 10 0 018.833 8.821 1 1 0 01-1.7.82L17.672 7.03a5.99 5.99 0 011.31 2.728 1 1 0 01-1.689.898l-3.95-3.95a1 1 0 01.899-1.688c1.026.2 1.956.658 2.722 1.304l-3.62-3.615a1 1 0 01-.195-1.14zm-6.03 3.29A1 1 0 006.12 4H3.11a1 1 0 00-.994 1.083 18.79 18.79 0 002.914 8.223l.004.008a18.5 18.5 0 005.693 5.692l.008.005a18.79 18.79 0 008.183 2.914 1 1 0 001.082-1V17.92h1l-1-.025a1 1 0 00-.856-1.014 13.837 13.837 0 01-3.023-.754h-.002a1 1 0 00-1.054.223l-1.268 1.267a1 1 0 01-1.2.162 17 17 0 01-6.376-6.375 1 1 0 01.162-1.201l1.268-1.268a1 1 0 00.223-1.053V7.88a13.84 13.84 0 01-.754-3.024zM22 20.917v-2.987zM6.106 2a3 3 0 012.995 2.58v.01c.118.884.334 1.753.646 2.59a3 3 0 01-.676 3.163l-.003.004-.718.717a15 15 0 004.586 4.586l.721-.721a3 3 0 013.164-.675c.836.312 1.705.528 2.59.645h.01A3 3 0 0122 17.932" clip-rule="evenodd"/>
</svg>
