<svg xmlns="http://www.w3.org/2000/svg" width="24" height="24" fill="currentColor" viewBox="0 0 24 24">
  <path fill-rule="evenodd" d="M8.12 3.856a1 1 0 00-1-.856H4.111a1 1 0 00-.995 1.083 18.79 18.79 0 002.913 8.183 1 1 0 11-1.678 1.088 20.79 20.79 0 01-3.225-9.066l-.002-.018A3 3 0 014.11 1h2.997a3 3 0 012.995 2.58v.01c.118.884.334 1.753.646 2.59a3 3 0 01-.675 3.163l-.004.004-1.27 1.27a1 1 0 01-1.415-1.414l1.268-1.268a1 1 0 00.223-1.053V6.88a13.84 13.84 0 01-.754-3.024zm1.854 8.747a1 1 0 011.414 0c.773.774 1.627 1.46 2.548 2.047l.717-.717.004-.004a3 3 0 013.164-.675 11.84 11.84 0 002.59.645h.01A3 3 0 0123 16.895v2.995m-6.936-4.54l-1.268 1.268a1 1 0 01-1.2.162 17.001 17.001 0 01-3.624-2.762 1 1 0 010-1.414" clip-rule="evenodd"/>
  <path fill-rule="evenodd" d="M23.707.293a1 1 0 010 1.414l-22 22a1 1 0 01-1.414-1.414l22-22a1 1 0 011.414 0z" clip-rule="evenodd"/>
</svg>
