<svg xmlns="http://www.w3.org/2000/svg" width="24" height="24" fill="currentColor" viewBox="0 0 24 24">
  <path fill-rule="evenodd" d="M2 5a3 3 0 013-3h14a3 3 0 013 3v14a3 3 0 01-3 3H5a3 3 0 01-3-3V5zm3-1a1 1 0 00-1 1v14a1 1 0 001 1h14a1 1 0 001-1V5a1 1 0 00-1-1H5z" clip-rule="evenodd"/>
  <path fill-rule="evenodd" d="M12 7a1 1 0 011 1v8a1 1 0 11-2 0V8a1 1 0 011-1z" clip-rule="evenodd"/>
  <path fill-rule="evenodd" d="M7 12a1 1 0 011-1h8a1 1 0 110 2H8a1 1 0 01-1-1z" clip-rule="evenodd"/>
</svg>
