<svg xmlns="http://www.w3.org/2000/svg" width="24" height="24" fill="currentColor" viewBox="0 0 24 24">
  <path fill-rule="evenodd" d="M9 12a3 3 0 116 0 3 3 0 01-6 0zm3-1a1 1 0 100 2 1 1 0 000-2zM5.637 4.223a1 1 0 010 1.414 9 9 0 000 12.726 1 1 0 11-1.414 1.414c-4.295-4.296-4.295-11.259 0-15.554a1 1 0 011.414 0zm12.726 0a1 1 0 011.414 0c4.294 4.295 4.294 11.258 0 15.554a1 1 0 11-1.414-1.414 9 9 0 000-12.726 1 1 0 010-1.414zm-9.896 2.82a1 1 0 010 1.414 5 5 0 000 7.075 1 1 0 11-1.414 1.415 7 7 0 010-9.905 1 1 0 011.414.001zm7.065.01a1 1 0 011.415 0 7 7 0 010 9.904 1 1 0 11-1.414-1.415 5 5 0 000-7.075 1 1 0 010-1.414z" clip-rule="evenodd"/>
</svg>
