<svg xmlns="http://www.w3.org/2000/svg" width="24" height="24" fill="currentColor" viewBox="0 0 24 24">
  <path fill-rule="evenodd" d="M23 3a1 1 0 011 1v6a1 1 0 01-1 1h-6a1 1 0 110-2h5V4a1 1 0 011-1zM0 14a1 1 0 011-1h6a1 1 0 110 2H2v5a1 1 0 11-2 0v-6z" clip-rule="evenodd"/>
  <path fill-rule="evenodd" d="M17.653 6.347a8 8 0 00-13.2 2.987 1 1 0 11-1.886-.668 10 10 0 0116.489-3.744l4.629 4.35a1 1 0 11-1.37 1.457l-4.64-4.36a1.051 1.051 0 01-.022-.022zM.27 13.315a1 1 0 011.414-.044l4.64 4.36a8 8 0 0013.223-2.965 1 1 0 011.885.668 10 10 0 01-16.489 3.744l-4.629-4.35a1 1 0 01-.044-1.413z" clip-rule="evenodd"/>
</svg>
