<svg xmlns="http://www.w3.org/2000/svg" width="24" height="24" fill="currentColor" viewBox="0 0 24 24">
  <path fill-rule="evenodd" d="M1 3a1 1 0 011 1v5h5a1 1 0 010 2H1a1 1 0 01-1-1V4a1 1 0 011-1zM16 14a1 1 0 011-1h6a1 1 0 011 1v6a1 1 0 11-2 0v-5h-5a1 1 0 01-1-1z" clip-rule="evenodd"/>
  <path fill-rule="evenodd" d="M4.944 4.922a10 10 0 0116.489 3.744 1 1 0 11-1.886.668A8 8 0 006.325 6.369l-4.64 4.36A1 1 0 11.315 9.27l4.63-4.35zm18.785 8.393a1 1 0 01-.044 1.414l-4.63 4.35a10 10 0 01-16.488-3.745 1 1 0 011.886-.668 8 8 0 0013.222 2.965l4.64-4.36a1 1 0 011.414.044z" clip-rule="evenodd"/>
</svg>
