<svg xmlns="http://www.w3.org/2000/svg" width="24" height="24" fill="currentColor" viewBox="0 0 24 24">
  <path fill-rule="evenodd" d="M5 4a1 1 0 00-1 1v14a1 1 0 001 1h14a1 1 0 001-1V8.414L15.586 4H5zM2 5a3 3 0 013-3h11a1 1 0 01.707.293l5 5A1 1 0 0122 8v11a3 3 0 01-3 3H5a3 3 0 01-3-3V5z" clip-rule="evenodd"/>
  <path fill-rule="evenodd" d="M6 13a1 1 0 011-1h10a1 1 0 011 1v8a1 1 0 11-2 0v-7H8v7a1 1 0 11-2 0v-8zM7 2a1 1 0 011 1v4h7a1 1 0 110 2H7a1 1 0 01-1-1V3a1 1 0 011-1z" clip-rule="evenodd"/>
</svg>
