<svg xmlns="http://www.w3.org/2000/svg" width="24" height="24" fill="currentColor" viewBox="0 0 24 24">
  <path fill-rule="evenodd" d="M1 4a3 3 0 013-3h16a3 3 0 013 3v4a3 3 0 01-3 3H4a3 3 0 01-3-3V4zm3-1a1 1 0 00-1 1v4a1 1 0 001 1h16a1 1 0 001-1V4a1 1 0 00-1-1H4zM1 16a3 3 0 013-3h16a3 3 0 013 3v4a3 3 0 01-3 3H4a3 3 0 01-3-3v-4zm3-1a1 1 0 00-1 1v4a1 1 0 001 1h16a1 1 0 001-1v-4a1 1 0 00-1-1H4z" clip-rule="evenodd"/>
  <path d="M7 6a1 1 0 11-2 0 1 1 0 012 0zM7 18a1 1 0 11-2 0 1 1 0 012 0z"/>
</svg>
