<svg xmlns="http://www.w3.org/2000/svg" width="24" height="24" fill="currentColor" viewBox="0 0 24 24">
  <path fill-rule="evenodd" d="M14 5a4 4 0 118 0 4 4 0 01-8 0zm4-2a2 2 0 100 4 2 2 0 000-4zM2 12a4 4 0 118 0 4 4 0 01-8 0zm4-2a2 2 0 100 4 2 2 0 000-4zM14 19a4 4 0 118 0 4 4 0 01-8 0zm4-2a2 2 0 100 4 2 2 0 000-4z" clip-rule="evenodd"/>
  <path fill-rule="evenodd" d="M7.726 13.007a1 1 0 011.367-.361l6.83 3.98a1 1 0 11-1.007 1.728l-6.83-3.98a1 1 0 01-.36-1.367zM16.274 6.006a1 1 0 01-.36 1.368l-6.82 3.98a1 1 0 11-1.008-1.728l6.82-3.98a1 1 0 011.368.36z" clip-rule="evenodd"/>
</svg>
