<svg xmlns="http://www.w3.org/2000/svg" width="24" height="24" fill="currentColor" viewBox="0 0 24 24">
  <path fill-rule="evenodd" d="M11.758 1.03a1 1 0 01.485 0l8 2A1 1 0 0121 4v8c0 3.446-2.282 6.2-4.341 8.003a22.684 22.684 0 01-4.104 2.836 8.28 8.28 0 01-.076.04l-.022.01-.006.004h-.002s-.002.001-.449-.893l-.448.894-.003-.001-.006-.004-.022-.01a8.28 8.28 0 01-.35-.188 22.686 22.686 0 01-3.83-2.689C5.281 18.2 3 15.447 3 12V4a1 1 0 01.757-.97l8-2zM12 22l-.448.894c.282.14.614.141.895 0L12 22zm0-1.137a20.69 20.69 0 003.341-2.365C17.282 16.8 19 14.553 19 12V4.78l-7-1.75-7 1.75V12c0 2.554 1.718 4.8 3.659 6.497A20.692 20.692 0 0012 20.863z" clip-rule="evenodd"/>
</svg>
