<svg xmlns="http://www.w3.org/2000/svg" width="24" height="24" fill="currentColor" viewBox="0 0 24 24">
  <path fill-rule="evenodd" d="M5 21a3 3 0 116 0 3 3 0 01-6 0zm3-1a1 1 0 100 2 1 1 0 000-2zM17 21a3 3 0 116 0 3 3 0 01-6 0zm3-1a1 1 0 100 2 1 1 0 000-2zM0 1a1 1 0 011-1h2.252a3 3 0 012.97 2.61L6.536 5H23a1 1 0 01.98 1.196l-1.68 8.389v.001A3 3 0 0119.312 17H8.754a3 3 0 01-2.995-2.61m0 0L4.239 2.87a1 1 0 00-.99-.87H1a1 1 0 01-1-1m6.8 6l.941 7.13a1 1 0 001 .87H19.34a1 1 0 001-.805v-.001L21.78 7H6.8z" clip-rule="evenodd"/>
</svg>
