<svg xmlns="http://www.w3.org/2000/svg" width="24" height="24" fill="currentColor" viewBox="0 0 24 24">
  <path fill-rule="evenodd" d="M14 3a1 1 0 011-1h5a1 1 0 011 1v5a1 1 0 11-2 0V4h-4a1 1 0 01-1-1z" clip-rule="evenodd"/>
  <path fill-rule="evenodd" d="M20.707 2.293a1 1 0 010 1.414l-17 17a1 1 0 01-1.414-1.414l17-17a1 1 0 011.414 0zM20 15a1 1 0 011 1v5a1 1 0 01-1 1h-5a1 1 0 110-2h4v-4a1 1 0 011-1z" clip-rule="evenodd"/>
  <path fill-rule="evenodd" d="M13.293 14.293a1 1 0 011.414 0l6 6a1 1 0 01-1.414 1.414l-6-6a1 1 0 010-1.414zM2.293 3.293a1 1 0 011.414 0l5 5a1 1 0 01-1.414 1.414l-5-5a1 1 0 010-1.414z" clip-rule="evenodd"/>
</svg>
