<svg xmlns="http://www.w3.org/2000/svg" width="24" height="25" fill="currentColor" viewBox="0 0 24 25">
  <path fill-rule="evenodd" d="M17.992 1.883c2.413 1.304 3.896 3.983 5.046 7.83 1.152 3.826 1.372 6.868.06 9.28-1.31 2.41-3.987 3.894-7.81 5.045-3.826 1.151-6.869 1.371-9.282.06-2.41-1.311-3.892-3.987-5.043-7.81C-.19 12.462-.41 9.42.903 7.006c1.31-2.41 3.986-3.893 7.809-5.044 3.823-1.15 6.866-1.384 9.28-.08zm-.951 1.76c-1.673-.906-4.035-.885-7.752.235C5.57 4.997 3.572 6.284 2.66 7.96c-.91 1.675-.9 4.037.218 7.75 1.119 3.718 2.406 5.717 4.084 6.63 1.674.91 4.037.9 7.75-.219 3.718-1.119 5.716-2.406 6.628-4.084.91-1.674.9-4.036-.217-7.75v-.002c-1.12-3.743-2.407-5.738-4.082-6.644z" clip-rule="evenodd"/>
  <path fill-rule="evenodd" d="M12.244 6.044a1 1 0 011.271.62l3.58 10.4a1 1 0 01-1.89.651l-3.58-10.4a1 1 0 01.62-1.27zM7.524 7.664a1 1 0 011.271.62l3.58 10.4a1 1 0 11-1.89.651l-3.58-10.4a1 1 0 01.62-1.27z" clip-rule="evenodd"/>
  <path fill-rule="evenodd" d="M17.335 8.524a1 1 0 01-.62 1.271l-10.4 3.58a1 1 0 11-.651-1.89l10.4-3.58a1 1 0 011.271.62zM18.955 13.245a1 1 0 01-.62 1.27l-10.4 3.58a1 1 0 11-.65-1.89l10.4-3.58a1 1 0 011.27.62z" clip-rule="evenodd"/>
</svg>
