<svg xmlns="http://www.w3.org/2000/svg" width="24" height="24" fill="currentColor" viewBox="0 0 24 24">
  <path fill-rule="evenodd" d="M6 17a6 6 0 0112 0 1 1 0 11-2 0 4 4 0 00-8 0 1 1 0 11-2 0zM12 0a1 1 0 011 1v7a1 1 0 11-2 0V1a1 1 0 011-1zM3.513 8.513a1 1 0 011.414 0l1.42 1.42a1 1 0 01-1.414 1.414l-1.42-1.42a1 1 0 010-1.414zM0 17a1 1 0 011-1h2a1 1 0 110 2H1a1 1 0 01-1-1zM20 17a1 1 0 011-1h2a1 1 0 110 2h-2a1 1 0 01-1-1zM20.487 8.513a1 1 0 010 1.414l-1.42 1.42a1 1 0 01-1.414-1.414l1.42-1.42a1 1 0 011.414 0zM0 21a1 1 0 011-1h22a1 1 0 110 2H1a1 1 0 01-1-1z" clip-rule="evenodd"/>
  <path fill-rule="evenodd" d="M7.293 3.293a1 1 0 011.414 0L12 6.586l3.293-3.293a1 1 0 111.414 1.414l-4 4a1 1 0 01-1.414 0l-4-4a1 1 0 010-1.414z" clip-rule="evenodd"/>
</svg>
