<svg xmlns="http://www.w3.org/2000/svg" width="24" height="24" fill="currentColor" viewBox="0 0 24 24">
  <path fill-rule="evenodd" d="M1 12C1 5.925 5.925 1 12 1s11 4.925 11 11-4.925 11-11 11S1 18.075 1 12zm11-9a9 9 0 100 18 9 9 0 000-18z" clip-rule="evenodd"/>
  <path fill-rule="evenodd" d="M5 12a7 7 0 1114 0 7 7 0 01-14 0zm7-5a5 5 0 100 10 5 5 0 000-10z" clip-rule="evenodd"/>
  <path fill-rule="evenodd" d="M9 12a3 3 0 116 0 3 3 0 01-6 0zm3-1a1 1 0 100 2 1 1 0 000-2z" clip-rule="evenodd"/>
</svg>
