<svg xmlns="http://www.w3.org/2000/svg" width="24" height="24" fill="currentColor" viewBox="0 0 24 24">
  <path fill-rule="evenodd" d="M21 4.077A1.31 1.31 0 0019.688 3H18v9h1.688A1.31 1.31 0 0021 10.923V4.077zm-5 8.71V3H5.71a1 1 0 00-1 .85l-1.38 9a1.001 1.001 0 001 1.15H10a1 1 0 011 1v4a2 2 0 001.392 1.906L16 12.788zM17.65 14l-3.736 8.406A1 1 0 0113 23a4 4 0 01-4-4v-3H4.345a3 3 0 01-2.994-3.45l1.38-9A3 3 0 015.725 1h13.937a3.31 3.31 0 013.329 2.866c.006.044.01.089.01.134v7c0 .045-.004.09-.01.134A3.31 3.31 0 0119.662 14H17.65z" clip-rule="evenodd"/>
</svg>
