<svg xmlns="http://www.w3.org/2000/svg" width="24" height="24" fill="currentColor" viewBox="0 0 24 24">
  <path fill-rule="evenodd" d="M20.133 3.385A5.48 5.48 0 0011 7.507a9.66 9.66 0 01-7.182-4.082 1 1 0 00-1.732.169L3 4l-.914-.405v.001l-.002.003-.004.009-.011.027a9.309 9.309 0 00-.163.42c-.101.279-.232.676-.358 1.163-.251.971-.49 2.324-.422 3.827.069 1.508.448 3.187 1.451 4.771.753 1.188 1.835 2.29 3.338 3.217a10.64 10.64 0 01-4.875.968 1 1 0 00-.526 1.873c4.777 2.654 10.137 2.679 14.331.446C19.063 18.075 22 13.6 22 7.5v-.003c0-.163-.008-.325-.023-.486a8.72 8.72 0 001.995-3.774 1 1 0 00-1.548-1.054 9.9 9.9 0 01-2.291 1.202zM3.405 6.044c-.184.801-.33 1.817-.28 2.91.056 1.243.364 2.564 1.142 3.792.773 1.222 2.05 2.411 4.14 3.34a1 1 0 01.155 1.741 12.637 12.637 0 01-3.602 1.689c3.17.807 6.347.422 8.945-.961C17.437 16.675 20 12.9 20 7.502c0-.216-.021-.432-.062-.644a1 1 0 01.28-.9c.223-.22.429-.454.618-.7-.227.083-.456.16-.688.23a1 1 0 01-1.043-.302A3.48 3.48 0 0013 7.516V8.53a1 1 0 01-.974 1 11.66 11.66 0 01-8.621-3.486z" clip-rule="evenodd"/>
</svg>
