<svg xmlns="http://www.w3.org/2000/svg" width="25" height="24" fill="currentColor" viewBox="0 0 25 24">
  <path fill-rule="evenodd" d="M12.293 11.293a1 1 0 011.414 0l4 4a1 1 0 01-1.414 1.414L13 13.414l-3.293 3.293a1 1 0 01-1.414-1.414l4-4z" clip-rule="evenodd"/>
  <path fill-rule="evenodd" d="M13 11a1 1 0 011 1v9a1 1 0 11-2 0v-9a1 1 0 011-1z" clip-rule="evenodd"/>
  <path fill-rule="evenodd" d="M2.013 6.843A9 9 0 0118.48 8H19a6 6 0 012.869 11.268 1 1 0 01-.958-1.756A4 4 0 0019 10H17.74a1 1 0 01-.968-.75 7 7 0 10-12.023 6.388 1 1 0 11-1.498 1.324A9 9 0 012.013 6.843z" clip-rule="evenodd"/>
  <path fill-rule="evenodd" d="M12.293 11.293a1 1 0 011.414 0l4 4a1 1 0 01-1.414 1.414L13 13.414l-3.293 3.293a1 1 0 01-1.414-1.414l4-4z" clip-rule="evenodd"/>
</svg>
