<svg xmlns="http://www.w3.org/2000/svg" width="24" height="24" fill="currentColor" viewBox="0 0 24 24">
  <path fill-rule="evenodd" d="M5.65 8l4.725-3.78L11 5h1v14a1 1 0 01-1.625.781l-4.726-3.78H2a1 1 0 01-1-1V9a1 1 0 011-1h3.65zM10 7.08L6.625 9.782a1 1 0 01-.625.22H3v4h3a1 1 0 01.625.218L10 16.92V7.082zM18.363 4.223a1 1 0 011.414 0c4.294 4.295 4.294 11.258 0 15.554a1 1 0 01-1.414-1.414 9 9 0 000-12.726 1 1 0 010-1.414zm-3.53 3.53a1 1 0 011.414 0 6 6 0 010 8.484 1 1 0 01-1.414-1.414 4 4 0 000-5.656 1 1 0 010-1.414z" clip-rule="evenodd"/>
</svg>
