<svg xmlns="http://www.w3.org/2000/svg" width="24" height="24" fill="currentColor" viewBox="0 0 24 24">
  <path fill-rule="evenodd" d="M4.65 8l4.725-3.78L10 5h1v14a1 1 0 01-1.625.781l-4.726-3.78H1a1 1 0 01-1-1V9a1 1 0 011-1h3.65zM9 7.08L5.625 9.782a1 1 0 01-.625.22H2v4h3a1 1 0 01.625.218L9 16.92V7.082zM22.707 8.293a1 1 0 010 1.414l-6 6a1 1 0 01-1.414-1.414l6-6a1 1 0 011.414 0z" clip-rule="evenodd"/>
  <path fill-rule="evenodd" d="M15.293 8.293a1 1 0 011.414 0l6 6a1 1 0 01-1.414 1.414l-6-6a1 1 0 010-1.414z" clip-rule="evenodd"/>
</svg>
