<svg xmlns="http://www.w3.org/2000/svg" width="24" height="24" fill="currentColor" viewBox="0 0 24 24">
  <path fill-rule="evenodd" d="M4 12a8 8 0 1116 0 8 8 0 01-16 0zm8-6a6 6 0 100 12 6 6 0 000-12z" clip-rule="evenodd"/>
  <path fill-rule="evenodd" d="M12 8a1 1 0 011 1v2.586l1.207 1.207a1 1 0 01-1.414 1.414l-1.5-1.5A1 1 0 0111 12V9a1 1 0 011-1zM15.184 2.91a1 1 0 00-1-.91H9.83a1 1 0 00-.994.91l-.35 3.831a1 1 0 11-1.992-.182l.35-3.829A3 3 0 019.829 0h4.349m2.997 2.73v-.001zm0 0l.35 3.829a1 1 0 11-1.991.182l-.35-3.831M7.389 16.354a1 1 0 011.086.905l.35 3.831a1 1 0 001 .91H14.165a1 1 0 001-.91l.35-3.831a1 1 0 011.991.182l-.35 3.829v.001M7.39 16.354a1 1 0 00-.905 1.087zm-.905 1.087l.35 3.829zm.35 3.829zm0 0A3 3 0 009.832 24H9.83v-1l.004 1h-.002m4.325 0h.003v-1l-.005 1h.003z" clip-rule="evenodd"/>
</svg>
