<svg xmlns="http://www.w3.org/2000/svg" width="24" height="24" fill="currentColor" viewBox="0 0 24 24">
  <path fill-rule="evenodd" d="M18.02 14.316a10 10 0 00-12.8 0 1 1 0 01-1.28-1.537 12 12 0 0115.36 0 1 1 0 01-1.28 1.537z" clip-rule="evenodd"/>
  <path fill-rule="evenodd" d="M21.499 10.748a15 15 0 00-19.838 0 1 1 0 11-1.322-1.5c6.424-5.664 16.058-5.664 22.482 0a1 1 0 01-1.322 1.5zM14.481 17.922a5 5 0 00-5.791 0 1 1 0 11-1.159-1.63 7 7 0 018.109 0 1 1 0 11-1.159 1.63z" clip-rule="evenodd"/>
  <path d="M13 21a1 1 0 11-2 0 1 1 0 012 0z"/>
</svg>
