<svg xmlns="http://www.w3.org/2000/svg" width="24" height="24" fill="currentColor" viewBox="0 0 24 24">
  <path fill-rule="evenodd" d="M.293.293a1 1 0 011.414 0l22 22a1 1 0 01-1.414 1.414l-22-22a1 1 0 010-1.414z" clip-rule="evenodd"/>
  <path d="M13 20a1 1 0 11-2 0 1 1 0 012 0z"/>
  <path fill-rule="evenodd" d="M15.821 10.621a1 1 0 011.338-.46c.893.437 1.73.983 2.488 1.627a1 1 0 11-1.294 1.524 9.942 9.942 0 00-2.072-1.353 1 1 0 01-.46-1.338zM11.156 9.991a1 1 0 01-.817 1.155 9.94 9.94 0 00-4.698 2.171 1 1 0 11-1.282-1.534A11.94 11.94 0 0110 9.174a1 1 0 011.155.817zM21.919 9.75A15 15 0 0010.79 6.047a1 1 0 11-.16-1.994A17 17 0 0123.242 8.25a1 1 0 01-1.323 1.5zM7.05 5.753a1 1 0 01-.563 1.297 14.91 14.91 0 00-4.405 2.7 1 1 0 01-1.324-1.5 16.91 16.91 0 014.995-3.06 1 1 0 011.297.563zM14.901 16.925a5 5 0 00-5.791 0 1 1 0 01-1.159-1.63 7 7 0 018.108 0 1 1 0 01-1.158 1.63z" clip-rule="evenodd"/>
</svg>
