<svg xmlns="http://www.w3.org/2000/svg" width="24" height="24" fill="currentColor" viewBox="0 0 24 24">
  <path fill-rule="evenodd" d="M11.508 5.134a1 1 0 00-1.209.161 1 1 0 01-1.418-1.41A3 3 0 1110.998 9h-.002L11 8v1H2a1 1 0 110-2h9.004a1 1 0 00.504-1.866zM20.246 8.2a1.5 1.5 0 00-1.81.237 1 1 0 11-1.412-1.416A3.5 3.5 0 1119.502 13H2a1 1 0 010-2h17.499a1.5 1.5 0 00.747-2.799zm-6.248 6.8a3 3 0 11-2.117 5.114 1 1 0 111.418-1.41A1 1 0 1014.004 17H2a1 1 0 010-2h11.998z" clip-rule="evenodd"/>
</svg>
