<svg xmlns="http://www.w3.org/2000/svg" width="24" height="24" fill="currentColor" viewBox="0 0 24 24">
  <path fill-rule="evenodd" d="M1 12C1 5.925 5.925 1 12 1s11 4.925 11 11-4.925 11-11 11S1 18.075 1 12zm11-9a9 9 0 100 18 9 9 0 000-18z" clip-rule="evenodd"/>
  <path fill-rule="evenodd" d="M15.707 8.293a1 1 0 010 1.414l-6 6a1 1 0 01-1.414-1.414l6-6a1 1 0 011.414 0z" clip-rule="evenodd"/>
  <path fill-rule="evenodd" d="M8.293 8.293a1 1 0 011.414 0l6 6a1 1 0 01-1.414 1.414l-6-6a1 1 0 010-1.414z" clip-rule="evenodd"/>
</svg>
